<svg width="46" height="46" viewBox="0 0 46 46" fill="none" xmlns="http://www.w3.org/2000/svg">
<path d="M14 23.75L17 26.75L20 23.75L29.7395 25.373C31.91 25.7353 33.5 27.6125 33.5 29.8123V45.5H0.5V29.8123C0.5 27.6125 2.09 25.7353 4.2605 25.3738L14 23.75Z" fill="#E39854"/>
<path d="M44.75 45.5H23.75C23.336 45.5 23 45.164 23 44.75V29.75C23 29.336 23.336 29 23.75 29H44.75C45.164 29 45.5 29.336 45.5 29.75V44.75C45.5 45.164 45.164 45.5 44.75 45.5Z" fill="#606060"/>
<path d="M23 42.2187C23.0495 42.2195 23.0975 42.2262 23.1477 42.2262C30.7467 42.2262 36.9845 36.4182 37.6775 29H23.75C23.336 29 23 29.336 23 29.75V42.2187Z" fill="#8C8787"/>
<path d="M45.5 32C45.5 34.4855 43.4855 36.5 41 36.5H27.5C25.0145 36.5 23 34.4855 23 32V29.75C23 29.336 23.336 29 23.75 29H44.75C45.164 29 45.5 29.336 45.5 29.75V32Z" fill="#D5CEC2"/>
<path d="M37.6775 29H23.75C23.336 29 23 29.336 23 29.75V32C23 34.4855 25.0145 36.5 27.5 36.5H34.7218C36.3493 34.3805 37.415 31.8103 37.6775 29Z" fill="#E7E4DD"/>
<path d="M45.5 42.5V44.75C45.5 45.164 45.164 45.5 44.75 45.5H23.75C23.336 45.5 23 45.164 23 44.75V42.5H45.5Z" fill="#D5CEC2"/>
<path d="M15.5 25.25L14.75 27.5L16.25 29.75H17.75L19.25 27.5L18.5 25.25" fill="#D5CEC2"/>
<path d="M22.25 7.25L21.05 8.15C19.8815 9.026 18.4602 9.5 17 9.5C15.5398 9.5 14.1185 9.026 12.95 8.15L11.75 7.25L10.25 10.25V14.75C10.25 17.399 11.7793 19.685 14 20.7897V23.75L17 26.75L20 23.75V20.7897C22.2207 19.6842 23.75 17.3982 23.75 14.75V10.25L22.25 7.25Z" fill="#FADFB2"/>
<path d="M23.7501 11L24.6133 8.99975C25.2898 7.43075 25.1706 5.6315 24.2908 4.166C23.7373 3.24425 22.9176 2.5115 21.9388 2.066L19.8463 1.11275C18.9591 0.70925 17.9961 0.5 17.0218 0.5C15.5473 0.5 14.1126 0.9785 12.9328 1.86275L11.6406 2.8385C10.5936 3.065 9.67109 3.7145 9.10784 4.6535C8.41784 5.80325 8.36309 7.226 8.96309 8.42525L10.2501 11V10.25L11.7501 7.25L12.9501 8.15C14.1186 9.026 15.5398 9.5 17.0001 9.5C18.4603 9.5 19.8816 9.026 21.0501 8.15L22.2501 7.25L23.7501 10.25V11Z" fill="#C18E59"/>
<path d="M10.25 11H8.75C7.92125 11 7.25 11.6712 7.25 12.5C7.25 13.3288 7.92125 14 8.75 14H10.25" fill="#EFBE9A"/>
<path d="M23.75 11H25.25C26.0788 11 26.75 11.6712 26.75 12.5C26.75 13.3288 26.0788 14 25.25 14H23.75" fill="#EFBE9A"/>
<path d="M7.25 31.999H8.75V45.4983H7.25V31.999Z" fill="#C16B3F"/>
<path d="M17.75 29.75L19.25 33.5L17 43.25L14.75 33.5L16.25 29.75" fill="#E7E4DD"/>
<path d="M34.25 39.5C33.4212 39.5 32.75 38.8288 32.75 38V33.5H35.75V38C35.75 38.8288 35.0788 39.5 34.25 39.5Z" fill="#F2C351"/>
<path d="M38.75 28.999L38.7493 25.999C38.7493 25.585 38.4132 25.249 37.9993 25.249H30.5C30.086 25.249 29.75 25.585 29.75 25.999V28.9983L28.25 28.999V25.999C28.25 24.7585 29.2595 23.749 30.5 23.749H37.9993C39.2398 23.749 40.2493 24.7585 40.2493 25.999L40.25 28.9983L38.75 28.999Z" fill="#8C8787"/>
<path d="M35.75 34.9715V33.5H32.75V38C32.75 38.1823 32.7875 38.3547 32.8468 38.5167C33.9913 37.4967 34.9722 36.3028 35.75 34.9715Z" fill="#F7D881"/>
</svg>
