<svg width="48" height="48" viewBox="0 0 48 48" fill="none" xmlns="http://www.w3.org/2000/svg">
<g clip-path="url(#clip0_137_7362)">
<path d="M25.2223 32.7792C25.226 34.4241 24.0685 36.4327 22.6358 37.258L5.28755 47.2733C4.55089 47.6998 3.88446 47.7312 3.41003 47.4377C3.41372 47.4413 3.41742 47.4432 3.42103 47.4469L1.79275 46.4924C1.32571 46.2229 1.03581 45.6469 1.03581 44.8309L0.95459 15.2241C0.95459 14.482 1.19834 13.6697 1.58966 12.9201C2.06418 12.0081 2.76018 11.194 3.54849 10.738L20.8986 0.722576C21.613 0.307191 22.2685 0.270277 22.7429 0.5472L24.3897 1.50166C24.3787 1.49428 24.3676 1.48873 24.3546 1.48319C24.842 1.74535 25.1448 2.33058 25.1466 3.16873L25.2223 32.7792Z" fill="#DDE9FE"/>
<path d="M22.5432 1.68467C23.9756 0.857723 25.1421 1.52241 25.1468 3.16826L25.2221 32.7789C25.2268 34.4248 24.0679 36.4319 22.6354 37.2589L5.2881 47.2735C3.851 48.1031 2.68452 47.4384 2.67985 45.7926L2.60451 16.1819C2.59984 14.5361 3.75875 12.529 5.19584 11.6993L22.5432 1.68467Z" fill="#DDE9FE"/>
<path d="M4.11989 46.5245C3.82079 46.5245 3.78694 46.0105 3.7864 45.7895L3.71095 16.1792C3.70735 14.9318 4.65974 13.2863 5.74917 12.6575L23.0965 2.6429C23.4089 2.46247 23.6131 2.43555 23.7069 2.43555C24.0062 2.43555 24.04 2.95019 24.0406 3.1715L24.1159 32.7818C24.1195 34.0291 23.1692 35.6733 22.0825 36.3008L4.73501 46.3154C4.41989 46.4973 4.21425 46.5245 4.11989 46.5245Z" fill="white"/>
<path d="M0.954834 15.2242L1.03504 44.8317C1.03504 45.6475 1.32634 46.223 1.79264 46.4925L3.43354 47.4543C2.96725 47.1848 2.68324 46.6094 2.68324 45.7936L2.60303 16.1787C2.60303 15.4357 2.84756 14.6235 3.23863 13.8757L1.58919 12.9204C1.19901 13.6692 0.954834 14.4819 0.954834 15.2242Z" fill="#B3C9E2"/>
<path d="M22.7425 0.547263C22.2689 0.270523 21.6134 0.306932 20.8995 0.722109L3.54826 10.7372C2.76043 11.1931 2.06437 12.0083 1.58936 12.9202L3.2388 13.8754C3.71381 12.9666 4.40916 12.1545 5.19646 11.699L22.5404 1.68391C23.2616 1.26874 23.9171 1.23233 24.3907 1.50182L22.7425 0.547263Z" fill="#C7D8EF"/>
<path d="M19.8149 11.1326C19.8168 11.9153 19.2629 12.868 18.5853 13.2593L10.3514 18.0132C10.0007 18.2144 9.685 18.231 9.45982 18.0926C9.46351 18.0981 9.46901 18.0999 9.47451 18.1036L8.70468 17.6587C8.48689 17.5313 8.35023 17.2581 8.35023 16.8649L8.33545 14.1418C8.33545 13.3627 8.88749 12.4175 9.56871 12.0224L17.8044 7.26303C18.144 7.06549 18.4542 7.05072 18.6813 7.17996L19.4511 7.62303C19.4143 7.60087 19.3755 7.58426 19.333 7.57319C19.6192 7.66733 19.8038 7.96087 19.8056 8.40764L19.8149 11.1326Z" fill="#B0C4FF"/>
<path d="M19.4504 7.62294C19.2233 7.49429 18.9129 7.50944 18.5723 7.70619L10.3368 12.4594C9.65541 12.853 9.10286 13.8067 9.10286 14.5863L9.11801 17.3086C9.11801 17.6946 9.25439 17.9747 9.47375 18.1033L8.70561 17.6598C8.48607 17.5311 8.34987 17.2587 8.34987 16.8651L8.33472 14.1427C8.33472 13.3632 8.88727 12.4171 9.56864 12.0235L17.8041 7.26265C18.1447 7.0659 18.455 7.05074 18.6821 7.1794L19.4504 7.62294Z" fill="#92B2F9"/>
<path d="M18.5698 7.70884C19.2464 7.31824 19.8039 7.63044 19.8061 8.40784L19.8143 11.1319C19.8166 11.9149 19.2626 12.8687 18.586 13.2593L10.3509 18.0135C9.66944 18.4069 9.11663 18.092 9.11441 17.309L9.10621 14.5849C9.104 13.8075 9.65322 12.8564 10.3347 12.463L18.5698 7.70884Z" fill="#B0C4FF"/>
<path d="M11.9066 13.5857C12.3048 13.3558 12.6289 13.5404 12.6302 13.9986C12.631 14.2875 12.5029 14.6163 12.3081 14.8773C12.1945 15.0296 12.0581 15.1589 11.9113 15.2436C11.7641 15.3286 11.6271 15.357 11.5127 15.336C11.3173 15.3002 11.1881 15.1202 11.1873 14.8316C11.186 14.3735 11.5079 13.8159 11.9066 13.5857Z" fill="#4075C1"/>
<path d="M17.0099 10.6394C17.4081 10.4095 17.7322 10.5942 17.7335 11.0523C17.7343 11.3412 17.6062 11.67 17.4114 11.931C17.2977 12.0833 17.1614 12.2126 17.0146 12.2973C16.8674 12.3823 16.7304 12.4107 16.616 12.3897C16.4206 12.3539 16.2913 12.1739 16.2905 11.8853C16.2892 11.4272 16.6112 10.8696 17.0099 10.6394Z" fill="#4075C1"/>
<path d="M5.96181 22.9175L5.96857 25.3024L5.68401 25.4666L5.67725 23.0818L5.96181 22.9175Z" fill="#285294"/>
<path d="M8.06516 21.7031L8.07192 24.088L7.75677 24.2699L6.68778 22.9541L6.69325 24.884L6.42497 25.0389L6.41821 22.654L6.74964 22.4626L7.80372 23.7895L7.79824 21.8572L8.06516 21.7031Z" fill="#285294"/>
<path d="M10.1712 20.4873L9.42071 23.3094L9.12255 23.4815L8.3606 21.5326L8.67095 21.3535L9.27299 23.0406L9.85607 20.6692L10.1712 20.4873Z" fill="#285294"/>
<path d="M11.977 19.4448L11.9779 19.7375L10.7384 20.4531L10.7405 21.1765L11.8862 20.515L11.887 20.7913L10.7413 21.4527L10.7436 22.2612L12.004 21.5335L12.0048 21.8176L10.4706 22.7033L10.4639 20.3184L11.977 19.4448Z" fill="#285294"/>
<path d="M14.0139 18.269L14.0206 20.6539L13.7055 20.8358L12.6365 19.52L12.642 21.4499L12.3737 21.6048L12.3669 19.2199L12.699 19.0282L13.7525 20.3554L13.747 18.4231L14.0139 18.269Z" fill="#285294"/>
<path d="M15.9663 17.1416L15.9671 17.4257L15.2676 17.8295L15.2735 19.9303L14.9883 20.095L14.9823 17.9942L14.2828 18.3981L14.282 18.114L15.9663 17.1416Z" fill="#285294"/>
<path d="M17.8824 16.3768C18.0208 16.5087 18.0902 16.7392 18.0911 17.0677C18.0922 17.4236 18.0142 17.7656 17.858 18.0918C17.6741 18.4755 17.4109 18.7658 17.0693 18.963C16.7501 19.1473 16.4985 19.1714 16.3151 19.0342C16.1515 18.895 16.0691 18.6463 16.0681 18.2896C16.0672 17.9673 16.1364 17.6507 16.275 17.3409C16.4534 16.9431 16.7172 16.6431 17.0676 16.4408C17.4343 16.2291 17.7057 16.2076 17.8824 16.3768ZM17.6388 18.0386C17.7489 17.771 17.804 17.504 17.8032 17.2386C17.8024 16.9585 17.7379 16.7698 17.6098 16.6726C17.4816 16.5754 17.3068 16.5903 17.0854 16.7182C16.8708 16.8421 16.6958 17.0283 16.5605 17.2761C16.4258 17.5234 16.3586 17.8124 16.3595 18.1425C16.3603 18.4063 16.4193 18.5949 16.536 18.7097C16.6526 18.8237 16.8417 18.8053 17.1025 18.6547C17.3504 18.5116 17.5287 18.3062 17.6388 18.0386Z" fill="#285294"/>
<path d="M20.0963 16.9457C20.1135 17.0116 20.1435 17.0435 20.1871 17.0395L20.1872 17.0933L19.8422 17.2925C19.8327 17.2777 19.8251 17.2555 19.8196 17.2258C19.814 17.1962 19.8091 17.1365 19.8048 17.046L19.7866 16.6578C19.7794 16.5056 19.7289 16.4309 19.635 16.4319C19.5813 16.4332 19.4963 16.4682 19.3815 16.5345L18.7418 16.9038L18.7447 17.9262L18.4635 18.0885L18.4568 15.7036L19.4171 15.1492C19.5753 15.0578 19.7058 15.0091 19.8092 15.0025C20.0044 14.9922 20.102 15.1234 20.1028 15.3974C20.1032 15.5402 20.0777 15.6721 20.0271 15.7921C19.9757 15.9132 19.9046 16.0269 19.8124 16.1356C19.8933 16.1272 19.9546 16.1411 19.9955 16.18C20.0364 16.2181 20.0598 16.3047 20.065 16.4401L20.076 16.7542C20.079 16.8439 20.0853 16.9075 20.0963 16.9457ZM19.7038 15.9873C19.7804 15.8821 19.8181 15.7509 19.8177 15.5933C19.8172 15.4231 19.7632 15.3378 19.6557 15.3381C19.5979 15.3395 19.5211 15.3674 19.4253 15.4227L18.7387 15.8191L18.741 16.6338L19.391 16.2586C19.5227 16.1825 19.6266 16.0921 19.7038 15.9873Z" fill="#285294"/>
<path d="M22.1494 13.5718L21.3697 15.4485L21.3724 16.4091L21.0912 16.5715L21.0885 15.6108L20.3 14.6395L20.6281 14.4501L21.2276 15.2522L21.8206 13.7616L22.1494 13.5718Z" fill="#285294"/>
<path d="M8.50478 26.6228C8.8784 26.4071 9.18111 26.5816 9.18232 27.0109L9.18948 29.5344C9.19069 29.9637 8.88996 30.4866 8.51634 30.7023L6.31849 31.9713C5.94487 32.187 5.64216 32.0125 5.64095 31.5832L5.63379 29.0596C5.63258 28.6303 5.93331 28.1074 6.30693 27.8917L8.50478 26.6228Z" fill="#DDE9FE"/>
<path d="M8.50478 32.1565C8.8784 31.9408 9.18111 32.1153 9.18232 32.5446L9.18948 35.0681C9.19069 35.4974 8.88996 36.0203 8.51634 36.236L6.31849 37.505C5.94487 37.7207 5.64216 37.5462 5.64095 37.1168L5.63379 34.5933C5.63258 34.164 5.93331 33.6411 6.30693 33.4254L8.50478 32.1565Z" fill="#DDE9FE"/>
<path d="M8.50478 37.6902C8.8784 37.4745 9.18111 37.649 9.18232 38.0783L9.18948 40.6018C9.19069 41.0311 8.88996 41.554 8.51634 41.7697L6.31849 43.0386C5.94487 43.2544 5.64216 43.0799 5.64095 42.6505L5.63379 40.127C5.63258 39.6977 5.93331 39.1748 6.30693 38.9591L8.50478 37.6902Z" fill="#DDE9FE"/>
<path d="M7.2684 30.1872C7.23212 30.1872 7.19487 30.1781 7.16087 30.1585L6.46244 29.7604C6.35818 29.7009 6.32191 29.5682 6.38139 29.4636C6.44022 29.3597 6.57291 29.3218 6.67815 29.3826L7.18866 29.6734L9.48299 25.6992C9.5428 25.5956 9.67582 25.559 9.78008 25.6198C9.88401 25.6796 9.91964 25.8126 9.8595 25.9169L7.45698 30.0784C7.41678 30.148 7.34357 30.1872 7.2684 30.1872Z" fill="#285294"/>
<path d="M7.2684 35.6677C7.23212 35.6677 7.19487 35.6585 7.16087 35.6389L6.46244 35.2408C6.35818 35.1814 6.32191 35.0487 6.38139 34.9441C6.44022 34.8402 6.57291 34.8022 6.67815 34.863L7.18866 35.1539L9.48299 31.1797C9.5428 31.0761 9.67582 31.0395 9.78008 31.1003C9.88401 31.1601 9.91964 31.2931 9.8595 31.3973L7.45698 35.5589C7.41678 35.6285 7.34357 35.6677 7.2684 35.6677Z" fill="#285294"/>
<path d="M7.2684 35.6677C7.23212 35.6677 7.19487 35.6585 7.16087 35.6389L6.46244 35.2408C6.35818 35.1814 6.32191 35.0487 6.38139 34.9441C6.44022 34.8402 6.57291 34.8022 6.67815 34.863L7.18866 35.1539L9.48299 31.1797C9.5428 31.0761 9.67582 31.0395 9.78008 31.1003C9.88401 31.1601 9.91964 31.2931 9.8595 31.3973L7.45698 35.5589C7.41678 35.6285 7.34357 35.6677 7.2684 35.6677Z" fill="#285294"/>
<path d="M7.2684 41.2009C7.23212 41.2009 7.19487 41.1917 7.16087 41.1721L6.46244 40.7741C6.35818 40.7146 6.32191 40.5819 6.38139 40.4773C6.44022 40.3734 6.57291 40.3354 6.67815 40.3962L7.18866 40.6871L9.48299 36.7129C9.5428 36.6093 9.67582 36.5727 9.78008 36.6335C9.88401 36.6933 9.91964 36.8263 9.8595 36.9305L7.45698 41.0921C7.41678 41.1617 7.34357 41.2009 7.2684 41.2009Z" fill="#285294"/>
<path d="M11.7895 26.1429C11.6911 26.1429 11.5958 26.0919 11.5431 26.0008C11.4645 25.8648 11.511 25.691 11.647 25.6126L21.7665 19.7706C21.9025 19.692 22.0761 19.7388 22.1547 19.8745C22.2333 20.0105 22.1868 20.1842 22.0508 20.2627L11.9313 26.1047C11.8866 26.1306 11.8376 26.1429 11.7895 26.1429Z" fill="#DDE9FE"/>
<path d="M11.7895 28.7411C11.6911 28.7411 11.5958 28.6901 11.5431 28.599C11.4645 28.463 11.511 28.2893 11.647 28.2108L19.5024 23.6759C19.6384 23.5972 19.812 23.6441 19.8906 23.7798C19.9693 23.9157 19.9227 24.0895 19.7867 24.168L11.9313 28.7029C11.8866 28.7288 11.8376 28.7411 11.7895 28.7411Z" fill="#DDE9FE"/>
<path d="M11.7895 31.5345C11.6911 31.5345 11.5958 31.4835 11.5431 31.3924C11.4645 31.2564 11.511 31.0826 11.647 31.0042L21.7665 25.1622C21.9025 25.0836 22.0761 25.1304 22.1547 25.2661C22.2333 25.4021 22.1868 25.5758 22.0508 25.6543L11.9313 31.4963C11.8866 31.5222 11.8376 31.5345 11.7895 31.5345Z" fill="#DDE9FE"/>
<path d="M11.7895 34.1327C11.6911 34.1327 11.5958 34.0817 11.5431 33.9906C11.4645 33.8546 11.511 33.6809 11.647 33.6024L19.5024 29.0675C19.6384 28.9888 19.812 29.0357 19.8906 29.1714C19.9693 29.3074 19.9227 29.4811 19.7867 29.5596L11.9313 34.0945C11.8866 34.1204 11.8376 34.1327 11.7895 34.1327Z" fill="#DDE9FE"/>
<path d="M11.7895 36.8119C11.6911 36.8119 11.5958 36.7608 11.5431 36.6697C11.4645 36.5337 11.511 36.36 11.647 36.2815L21.7665 30.4395C21.9025 30.3609 22.0761 30.4078 22.1547 30.5434C22.2333 30.6794 22.1868 30.8532 22.0508 30.9316L11.9313 36.7736C11.8866 36.7995 11.8376 36.8119 11.7895 36.8119Z" fill="#DDE9FE"/>
<path d="M11.7895 36.8119C11.6911 36.8119 11.5958 36.7608 11.5431 36.6697C11.4645 36.5337 11.511 36.36 11.647 36.2815L21.7665 30.4395C21.9025 30.3609 22.0761 30.4078 22.1547 30.5434C22.2333 30.6794 22.1868 30.8532 22.0508 30.9316L11.9313 36.7736C11.8866 36.7995 11.8376 36.8119 11.7895 36.8119Z" fill="#DDE9FE"/>
<path d="M11.7895 39.4101C11.6911 39.4101 11.5958 39.3591 11.5431 39.2679C11.4645 39.132 11.511 38.9582 11.647 38.8797L19.5024 34.3448C19.6384 34.2662 19.812 34.313 19.8906 34.4487C19.9693 34.5847 19.9227 34.7584 19.7867 34.8369L11.9313 39.3719C11.8866 39.3978 11.8376 39.4101 11.7895 39.4101Z" fill="#DDE9FE"/>
<path d="M24.4365 39.5928C24.5121 39.6364 24.5935 39.6741 24.6788 39.707C24.5937 39.6738 24.512 39.6363 24.4365 39.5928Z" fill="#C7D8EF"/>
<path d="M24.9365 39.7876C25.0209 39.809 25.1077 39.8248 25.196 39.8375C25.1078 39.8251 25.0209 39.8085 24.9365 39.7876Z" fill="#B3C9E2"/>
<path d="M25.2053 39.8394C25.2984 39.8525 25.3924 39.8601 25.4874 39.8636C25.3926 39.8601 25.2983 39.852 25.2053 39.8394Z" fill="#B3C9E2"/>
<path d="M24.679 39.707C24.7377 39.73 24.8003 39.7472 24.8625 39.7653C24.8002 39.7476 24.7378 39.7297 24.679 39.707Z" fill="#B3C9E2"/>
<path d="M32.8728 35.6407V35.6869L32.8525 40.6383C32.8525 40.8783 32.6937 41.1183 32.378 41.301L26.7195 44.5909C26.3817 44.7866 25.9312 44.8752 25.4881 44.8623C25.3903 44.8586 25.2943 44.8512 25.1983 44.8383C25.1964 44.8383 25.1964 44.8383 25.1964 44.8383C25.1023 44.8253 25.0118 44.8087 24.9232 44.7884C24.8992 44.781 24.8771 44.7737 24.8549 44.7663C24.7884 44.7478 24.722 44.7293 24.6611 44.7054C24.5743 44.6721 24.4912 44.6352 24.4155 44.5909L18.7183 41.301C18.3989 41.1164 18.2364 40.8727 18.2383 40.629L18.2605 35.637C18.2586 35.3952 18.4174 35.1533 18.7331 34.9706L24.3915 31.6807C25.0266 31.3115 26.0586 31.3115 26.6973 31.6807L32.3927 34.9687C32.7162 35.1558 32.8737 35.4008 32.8724 35.6442C32.8724 35.643 32.8728 35.6419 32.8728 35.6407Z" fill="#B0C4FF"/>
<path d="M32.3931 34.9691C33.0322 35.3381 33.0347 35.9354 32.3997 36.3044L26.7409 39.5929C26.1068 39.9615 25.0756 39.962 24.4365 39.5929L18.7407 36.3045C18.1024 35.936 18.0991 35.3382 18.7332 34.9697L24.392 31.6811C25.0269 31.3121 26.059 31.3121 26.6973 31.6806L32.3931 34.9691Z" fill="#B0C4FF"/>
<path d="M30.4414 42.4253L28.7779 43.3927L28.7281 38.4377L20.7454 33.8001L22.4032 32.8364L30.386 37.474L30.4414 42.4253Z" fill="#7CA2E5"/>
<path d="M32.3987 36.3046L26.7409 39.5925C26.3977 39.7922 25.9384 39.8799 25.4873 39.8633C25.4873 39.8633 25.4874 39.8633 25.4875 39.8633V44.8617C25.9317 44.8744 26.382 44.7859 26.7198 44.5903L32.3776 41.3005C32.6944 41.1181 32.8519 40.878 32.8519 40.638L32.8731 35.6401C32.8731 35.8802 32.7156 36.1203 32.3987 36.3046Z" fill="#92B2F9"/>
<path d="M25.4874 39.8632C25.3923 39.8597 25.2984 39.8521 25.2053 39.839C25.2021 39.8385 25.1991 39.8378 25.196 39.8374C25.1077 39.8246 25.0209 39.8089 24.9365 39.7875C24.911 39.7811 24.8874 39.772 24.8623 39.7649C24.8001 39.7468 24.7374 39.7296 24.6787 39.7067C24.5934 39.6738 24.512 39.636 24.4364 39.5924L18.7403 36.3046C18.4215 36.1202 18.2601 35.8782 18.2601 35.6362L18.239 40.6283C18.2371 40.8722 18.3984 41.1161 18.7192 41.3005L24.4153 44.5903C24.4916 44.6343 24.5742 44.6722 24.6603 44.7057C24.7225 44.7296 24.7885 44.7483 24.8546 44.7666C24.8777 44.7731 24.8995 44.7815 24.923 44.7874C25.0116 44.809 25.1028 44.8261 25.1956 44.8383C25.1965 44.8384 25.1973 44.8386 25.1983 44.8388C25.2935 44.8512 25.3903 44.8588 25.4873 44.8616C25.4874 44.8616 25.4875 44.8616 25.4876 44.8616V39.8633C25.4875 39.8633 25.4874 39.8632 25.4874 39.8632Z" fill="#7CA2E5"/>
<path d="M30.3862 37.4744C30.2285 38.2783 29.6154 38.5254 28.7288 38.4385L20.7454 33.8005L22.4027 32.8364L30.3862 37.4744Z" fill="#6A95D3"/>
<path d="M30.4418 42.4259L28.7787 43.3919L28.7288 38.4382L30.3862 37.4741L30.4418 42.4259Z" fill="#7CA2E5"/>
<path d="M26.6769 33.6689C26.6013 33.7125 26.5199 33.7503 26.4346 33.7832C26.5197 33.7499 26.6014 33.7125 26.6769 33.6689Z" fill="#C7D8EF"/>
<path d="M26.1767 33.8638C26.0923 33.8852 26.0055 33.9009 25.9172 33.9137C26.0055 33.9013 26.0923 33.8847 26.1767 33.8638Z" fill="#B3C9E2"/>
<path d="M25.9079 33.9155C25.8147 33.9286 25.7208 33.9363 25.6257 33.9398C25.7205 33.9363 25.8149 33.9282 25.9079 33.9155Z" fill="#B3C9E2"/>
<path d="M26.4343 33.7832C26.3756 33.8061 26.313 33.8234 26.2507 33.8414C26.3131 33.8237 26.3755 33.8059 26.4343 33.7832Z" fill="#B3C9E2"/>
<path d="M32.8746 34.7046C32.8765 34.9483 32.7141 35.192 32.3947 35.3766L26.6974 38.6664C26.6218 38.7107 26.5386 38.7495 26.4537 38.7827C26.391 38.8067 26.3246 38.8252 26.258 38.8436C26.2358 38.8492 26.2138 38.8584 26.1897 38.864C26.1011 38.8861 26.0107 38.9027 25.9184 38.9138C25.9165 38.9156 25.9165 38.9156 25.9147 38.9156C25.8205 38.9267 25.7227 38.936 25.6267 38.9378H25.6249C25.1817 38.9507 24.7313 38.8621 24.3934 38.6664L18.7349 35.3766C18.4193 35.1938 18.2605 34.9538 18.2605 34.7138L18.2402 29.7624V29.7163C18.2402 29.7174 18.2405 29.7185 18.2405 29.7195C18.2393 29.4762 18.3968 29.2314 18.7202 29.0461L24.4156 25.7563C25.0543 25.3889 26.0864 25.3889 26.7215 25.7581L32.3799 29.0461C32.6989 29.2312 32.8545 29.4735 32.8521 29.7168C32.8521 29.7154 32.8525 29.714 32.8525 29.7126V29.755L32.8746 34.7046Z" fill="#B0C4FF"/>
<path d="M18.7201 29.0453C18.081 29.4143 18.0785 30.0116 18.7135 30.3806L24.3723 33.6691C25.0064 34.0376 26.0376 34.0381 26.6767 33.6691L32.3725 30.3806C33.0108 30.0121 33.0142 29.4143 32.38 29.0458L26.7213 25.7573C26.0863 25.3883 25.0542 25.3883 24.416 25.7568L18.7201 29.0453Z" fill="#B0C4FF"/>
<path d="M30.3676 27.8776L22.3848 32.5152L22.335 37.4684L20.6716 36.5029L20.727 31.5515L28.7098 26.9121L30.3676 27.8776Z" fill="#7CA2E5"/>
<path d="M18.7143 30.3808L24.3722 33.6687C24.7154 33.8684 25.1747 33.9561 25.6258 33.9395C25.6257 33.9395 25.6256 33.9395 25.6256 33.9395V38.9378C25.1814 38.9505 24.731 38.862 24.3933 38.6665L18.7355 35.3767C18.4186 35.1943 18.2611 34.9542 18.2611 34.7141L18.24 29.7163C18.24 29.9564 18.3975 30.1964 18.7143 30.3808Z" fill="#92B2F9"/>
<path d="M25.6257 33.9394C25.7208 33.9359 25.8147 33.9282 25.9078 33.9151C25.9109 33.9147 25.9139 33.914 25.9171 33.9135C26.0054 33.9008 26.0922 33.8851 26.1766 33.8637C26.2021 33.8573 26.2257 33.8482 26.2508 33.8411C26.313 33.823 26.3756 33.8058 26.4343 33.7828C26.5196 33.7499 26.6011 33.7122 26.6766 33.6686L32.3728 30.3807C32.6916 30.1964 32.8529 29.9544 32.8529 29.7124L32.874 34.7045C32.876 34.9484 32.7147 35.1923 32.3939 35.3766L26.6977 38.6664C26.6215 38.7104 26.5389 38.7484 26.4528 38.7818C26.3906 38.8057 26.3246 38.8244 26.2585 38.8428C26.2354 38.8493 26.2135 38.8577 26.1901 38.8635C26.1014 38.8852 26.0103 38.9022 25.9175 38.9145C25.9166 38.9146 25.9157 38.9148 25.9148 38.9149C25.8196 38.9274 25.7228 38.935 25.6257 38.9378C25.6256 38.9378 25.6255 38.9378 25.6255 38.9378V33.9394C25.6255 33.9394 25.6256 33.9394 25.6257 33.9394Z" fill="#7CA2E5"/>
<path d="M20.7271 31.5506C21.1386 32.3129 21.6401 32.7932 22.3844 32.5147L30.3679 27.8767L28.7106 26.9126L20.7271 31.5506Z" fill="#7CA2E5"/>
<path d="M20.6714 36.502L22.3345 37.468L22.3844 32.5144L20.727 31.5503L20.6714 36.502Z" fill="#6A95D3"/>
<path d="M37.4233 9.44392C35.7919 9.3942 35.1808 12.635 34.4568 15.7642C34.42 15.9231 34.3139 16.0561 34.1702 16.1333C32.3871 17.0916 30.3446 16.6489 28.3506 14.9944L29.3517 18.2273C29.3517 18.2273 34.7763 19.303 36.2106 18.3201C37.9186 17.1497 38.8638 10.7287 38.8638 10.7287L37.4233 9.44392Z" fill="#F95070"/>
<path d="M36.2382 43.6413C34.8146 44.5123 33.8918 45.2228 33.6374 46.0145C33.553 46.2771 33.7023 46.5574 33.963 46.6474C34.6858 46.8968 35.4532 46.7946 36.2753 46.1876C36.4455 46.0619 36.5948 45.911 36.739 45.7562C36.9528 45.5267 37.2079 45.3814 37.5091 45.3299C37.7608 45.2869 38.0084 45.2225 38.2387 45.1123L38.9735 44.7603C39.1903 44.6565 39.3282 44.4375 39.3282 44.1972V42.6658L37.2681 42.0542L36.7907 43.0348C36.6686 43.2856 36.4762 43.4957 36.2382 43.6413Z" fill="#54D391"/>
<path d="M39.3286 43.6816V44.1968C39.3286 44.437 39.191 44.6559 38.9741 44.7605L38.2381 45.113C38.0076 45.2234 37.7616 45.2873 37.5098 45.3299C37.2077 45.3822 36.9521 45.5275 36.739 45.756C36.5956 45.911 36.4465 46.062 36.276 46.1879C35.4529 46.7942 34.6859 46.8968 33.9635 46.647C33.702 46.5579 33.5528 46.277 33.638 46.0136C33.6517 45.9749 33.6652 45.9342 33.6807 45.8955C33.7407 46.002 33.8395 46.0891 33.9635 46.1318C34.6859 46.3797 35.4529 46.279 36.276 45.6708C36.4465 45.5449 36.5956 45.3938 36.739 45.2389C36.9521 45.0103 37.2077 44.8651 37.5098 44.8128C37.7616 44.7701 38.0076 44.7062 38.2381 44.5958L38.9741 44.2433C39.191 44.1407 39.3286 43.9218 39.3286 43.6816Z" fill="#46C17E"/>
<path d="M36.8018 42.6528C36.8018 43.6601 39.4574 43.6439 39.4574 42.6366C39.4734 41.4057 39.6325 38.6449 39.4574 37.5566C39.3286 36.756 38.5992 35.2599 38.5131 34.4537C38.4005 33.3992 38.8636 30.2265 38.8636 30.2265L39.5923 25.8465L35.6094 24.2949L34.6817 24.8751C34.6817 24.8751 34.6529 31.8547 34.9515 34.1569C35.1083 35.3657 36.0577 38.9057 36.0577 38.9057L36.8018 42.6528Z" fill="#285294"/>
<path d="M39.4581 37.5569C39.6324 38.6454 39.4736 41.4054 39.4581 42.6373C39.4581 42.9065 39.2683 43.104 38.9913 43.2319C38.7047 43.0324 38.4258 42.8096 38.2902 42.4959C38.1837 42.248 38.1779 41.9729 38.1779 41.7037C38.1759 40.6462 38.2437 39.5867 38.3754 38.535C38.3929 38.3936 38.4123 38.2484 38.3774 38.1108C38.3154 37.8591 38.0888 37.6751 38.0113 37.4252C37.8796 37.0049 38.2088 36.5323 38.0539 36.1198C37.961 35.8719 37.713 35.7072 37.6259 35.4593C37.498 35.1029 37.7381 34.702 37.6433 34.3359C37.5852 34.1132 37.4109 33.9369 37.3315 33.72C37.0758 33.0111 37.9164 32.2073 37.5794 31.5314C37.4767 31.3261 37.2714 31.1673 37.2249 30.9406C37.1474 30.5571 37.5484 30.2647 37.7305 29.918C37.928 29.5442 37.8641 29.0929 37.8467 28.6707C37.8292 28.2484 37.8989 27.7623 38.2495 27.526C38.4025 27.4253 38.6137 27.3555 38.6485 27.1754C38.6679 27.067 38.6117 26.9624 38.573 26.8578C38.3929 26.3561 38.7279 25.837 39.1599 25.6782L39.5918 25.8467L38.8636 30.2259C38.8636 30.2259 38.4006 33.3985 38.5129 34.4541C38.5982 35.2598 39.3284 36.7551 39.4581 37.5569Z" fill="#263966"/>
<path d="M46.0744 36.6162L46.7693 37.2684C46.9713 37.4397 47.0728 37.7016 47.0389 37.9642L46.9478 38.6704C46.9391 38.738 46.8731 38.7826 46.8071 38.7655C46.7374 38.7473 46.6687 38.7982 46.6657 38.8702L46.6068 40.2771C46.5793 40.9329 46.2919 41.5647 45.7757 41.9702C45.2692 42.3682 44.6437 42.5054 43.9261 42.4404C43.4629 42.3984 43.1507 41.9188 43.3111 41.4822C43.3935 41.258 43.5466 40.9933 43.784 40.6804C44.0009 40.3945 44.1781 40.0767 44.2873 39.7347C44.4332 39.2781 44.5098 38.7809 44.512 38.2401L46.0744 36.6162Z" fill="#54D391"/>
<path d="M47.039 37.964L46.9479 38.671C46.9382 38.7388 46.8723 38.7833 46.8065 38.7659C46.7969 38.7639 46.7871 38.762 46.7794 38.762C46.7193 38.762 46.669 38.8085 46.6651 38.8705L46.607 40.2766C46.5799 40.9332 46.2913 41.5646 45.7761 41.9714C45.2687 42.3684 44.6431 42.5059 43.9264 42.4401C43.634 42.4149 43.4015 42.2135 43.3105 41.9597C43.4093 42.0314 43.5274 42.0779 43.6591 42.0895C44.3777 42.1553 45.0033 42.0178 45.5088 41.6188C46.0259 41.214 46.3127 40.5826 46.3397 39.926L46.3998 38.5199C46.4017 38.4579 46.4521 38.4114 46.5121 38.4114C46.5218 38.4114 46.5315 38.4134 46.5411 38.4153C46.607 38.4308 46.6729 38.3862 46.6806 38.3204L46.7716 37.6134C46.7891 37.4798 46.7716 37.3462 46.7232 37.2261L46.7697 37.2687C46.9712 37.4391 47.0719 37.7025 47.039 37.964Z" fill="#46C17E"/>
<path d="M42.1484 23.2273L42.8767 31.6038C42.8992 31.8625 42.9879 32.1111 43.1342 32.3256L45.951 36.1356C46.7523 37.3023 45.4983 38.9146 44.5119 38.2402C44.5119 38.2402 41.1399 35.2147 40.4287 34.067C39.2255 32.1253 37.626 26.047 37.626 26.047L39.2685 22.9595L42.1484 23.2273Z" fill="#285294"/>
<path d="M46.1829 37.2141C45.6639 37.0708 45.1875 36.7686 44.8465 36.3483C44.7032 36.1721 44.5793 35.9726 44.3952 35.837C44.281 35.7537 44.1454 35.6937 44.0563 35.5833C43.9401 35.4361 43.9343 35.2347 43.8684 35.0603C43.7909 34.855 43.6341 34.6923 43.4811 34.5374C42.993 34.0416 42.5068 33.5457 42.0187 33.048C41.7747 32.8 41.5171 32.5192 41.4958 32.1725C41.4822 31.9265 41.5927 31.6612 41.4803 31.4404C41.4241 31.328 41.3176 31.2486 41.2401 31.1479C40.8489 30.6482 41.2827 29.8618 40.9883 29.3001C40.9225 29.1704 40.8159 29.0503 40.8179 28.905C40.8198 28.7927 40.8896 28.6939 40.9458 28.5951C41.153 28.2291 41.2014 27.7758 41.0735 27.3769C40.9864 27.1018 40.8179 26.8403 40.8334 26.5518C40.8586 26.0482 41.428 25.6531 41.3389 25.1572C41.275 24.7989 40.8954 24.5897 40.7327 24.2624C40.5176 23.8247 40.7075 23.4063 41.0503 23.1235L42.1485 23.2262L42.8768 31.6031C42.9 31.8626 42.9871 32.1105 43.1344 32.3255L45.9506 36.1353C46.1868 36.48 46.245 36.8616 46.1829 37.2141Z" fill="#263966"/>
<path d="M44.387 13.2898C42.4732 11.3184 40.2325 10.1215 37.8002 9.37876C37.4596 9.27477 37.0883 9.40408 36.8954 9.70338C36.143 10.8709 35.6864 12.5155 35.3814 14.4047C35.2568 15.1771 35.1816 15.9587 35.1855 16.7411C35.1887 17.3835 35.2276 18.0521 35.3026 18.7472C35.4005 19.6546 35.3465 20.5729 35.1329 21.4601L34.4381 24.3453C34.3331 24.7814 34.459 25.2532 34.7982 25.5467C36.226 26.7818 40.7315 26.9186 42.3319 25.8049C42.7347 25.5245 42.9283 25.0287 42.8367 24.5466C42.8367 24.5466 42.0486 21.7556 42.1257 20.8071C42.2699 19.0342 44.5666 14.1238 44.5666 14.1238C44.6722 13.8347 44.6014 13.5107 44.387 13.2898Z" fill="#FC6C85"/>
<path d="M41.4981 10.9975L41.4753 11.026C40.962 11.6915 40.3878 12.3303 39.6616 12.5052L39.3916 12.5603C39.2452 12.5888 39.0988 12.604 38.96 12.604C38.8174 12.604 38.6787 12.5888 38.5474 12.5584C37.825 12.3911 37.7832 11.8321 37.8364 11.3074L37.8459 11.2257L38.9752 9.78076C39.8479 10.1116 40.6901 10.5127 41.4981 10.9975Z" fill="#EA2856"/>
<path d="M38.6122 12.2799C38.1816 12.1807 38.0584 11.9368 38.121 11.3363L39.6859 9.3335L41.2508 9.52427V10.852C40.7757 11.4663 40.2429 12.0714 39.5943 12.229L39.3362 12.2799C39.0972 12.3271 38.8496 12.3346 38.6122 12.2799Z" fill="#F7B2B2"/>
<path d="M41.6441 8.95481L41.2402 6.86666L37.5897 6.00488L37.1098 6.2369C37.1098 6.2369 36.6833 10.2018 37.4398 11.3396C37.5455 11.4985 37.7153 11.5931 37.8948 11.6294C39.2822 11.9107 40.5389 10.8787 41.6441 8.95481Z" fill="#F7B2B2"/>
<path d="M41.6434 8.95564C40.538 10.8787 39.2816 11.9109 37.8947 11.6305C37.7158 11.5927 37.5462 11.4992 37.4399 11.3401C36.6831 10.2026 37.1099 6.23707 37.1099 6.23707L37.3653 6.11377C37.2796 7.17972 37.1323 9.87245 37.7344 10.7773C37.8407 10.9364 38.0103 11.0319 38.1893 11.0677C39.4512 11.3222 40.6032 10.4949 41.6322 8.89797L41.6434 8.95564Z" fill="#EAA7A7"/>
<path d="M41.9626 6.47725C41.8272 4.66192 40.9141 4.33391 39.1549 4.41952C37.9077 4.50593 36.5889 5.19936 36.3797 6.1137C36.3427 6.27561 36.3384 6.44741 36.3798 6.60812C36.6358 7.60266 38.3597 7.52919 39.5407 7.36468C39.8187 7.32595 40.0976 7.47462 40.2094 7.74891C40.3143 8.00594 40.38 8.30744 40.3696 8.64187C40.3663 8.7499 40.4489 8.83885 40.5502 8.83885C40.6165 8.83885 40.6768 8.79905 40.7095 8.73749C40.7567 8.64856 40.8038 8.56997 40.8509 8.50236C41.029 8.24624 41.4014 8.29977 41.5113 8.59634L41.6442 8.95486C41.9253 8.31237 42.067 7.52374 41.9626 6.47725Z" fill="#353437"/>
<path d="M41.6435 8.95575L41.6099 8.86627C41.6099 8.86627 41.6099 8.86627 41.6099 8.86428C41.746 8.34323 41.7963 7.73071 41.7218 6.99091C41.5857 5.17521 40.6723 4.84707 38.9145 4.93258C37.9097 5.00219 36.8565 5.46755 36.3774 6.12183C36.3774 6.11985 36.3793 6.11587 36.3793 6.11388C36.5881 5.19907 37.9078 4.50699 39.1549 4.41949C40.9146 4.33398 41.8262 4.66212 41.9622 6.47782C42.0666 7.52388 41.925 8.3134 41.6435 8.95575Z" fill="#29282B"/>
<path d="M27.154 11.8923L32.064 13.5519C32.1993 13.5977 32.3058 13.7035 32.3523 13.8385L35.0658 21.7121C35.1522 21.9628 34.9042 22.1992 34.6579 22.1009L29.8944 20.1993C29.7754 20.1519 29.6816 20.0571 29.6353 19.9377L26.7019 12.3646C26.5913 12.0791 26.864 11.7942 27.154 11.8923Z" fill="#5789DC"/>
<path d="M34.6586 22.1005L29.8941 20.1993C29.7763 20.1518 29.6812 20.0568 29.6356 19.937L26.7021 12.3645C26.5918 12.0794 26.8637 11.7942 27.1546 11.893L30.1983 12.9216C29.6812 13.7049 29.377 14.6593 29.377 15.6897C29.377 18.3609 31.4151 20.5244 33.9304 20.5244C34.1699 20.5244 34.4057 20.5054 34.6358 20.4674L35.0654 21.7127C35.1528 21.9636 34.9038 22.1994 34.6586 22.1005Z" fill="#4075C1"/>
<path d="M42.8161 19.0771V19.0974L42.8032 24.0839C42.8032 24.2445 42.6979 24.4033 42.4875 24.5251L38.7251 26.7128C38.4998 26.842 38.2007 26.9011 37.9053 26.8937C37.8408 26.8919 37.7762 26.8863 37.7133 26.8771H37.7115C37.6506 26.8697 37.5896 26.8586 37.5306 26.8439C37.5158 26.8402 37.501 26.8346 37.4844 26.8291C37.442 26.818 37.3976 26.8051 37.3553 26.7885C37.2979 26.7663 37.2445 26.7423 37.1927 26.7128L33.4063 24.5251C33.1921 24.4033 33.085 24.2408 33.0869 24.0783L33.0998 19.0753C33.0998 18.9146 33.205 18.754 33.4155 18.6322L37.178 16.4445C37.5989 16.2008 38.2856 16.2008 38.7103 16.4445L42.4967 18.6322C42.7125 18.7552 42.817 18.9179 42.8157 19.0803C42.8157 19.0792 42.8161 19.0782 42.8161 19.0771Z" fill="#DDE9FE"/>
<path d="M42.4974 18.6315C42.9224 18.8768 42.924 19.274 42.5018 19.5193L38.7393 21.7059C38.3176 21.9509 37.632 21.9513 37.207 21.7059L33.4198 19.5194C32.9955 19.2744 32.9932 18.8769 33.4149 18.6318L37.1774 16.4453C37.5996 16.1999 38.2858 16.1999 38.7102 16.4449L42.4974 18.6315Z" fill="#DDE9FE"/>
<path d="M41.2008 25.2727L40.095 25.9152L40.0617 20.9379L34.7522 17.8549L35.8543 17.2124L41.1639 20.2973L41.2008 25.2727Z" fill="#7CA2E5"/>
<path d="M42.5014 19.5195L38.7395 21.7056C38.5113 21.8384 38.2059 21.8967 37.906 21.8856C37.906 21.8856 37.906 21.8856 37.906 21.8856L37.9061 26.8929C38.2015 26.9013 38.5009 26.8425 38.7255 26.7125L42.4874 24.5251C42.6981 24.4038 42.8028 24.2441 42.8028 24.0845L42.8168 19.0776C42.8168 19.2373 42.7121 19.3969 42.5014 19.5195Z" fill="#C7D8EF"/>
<path d="M37.9059 21.8858C37.8427 21.8834 37.7802 21.8783 37.7183 21.8696C37.7162 21.8693 37.7142 21.8688 37.7121 21.8686C37.6534 21.8601 37.5957 21.8496 37.5396 21.8354C37.5227 21.8312 37.5069 21.8251 37.4903 21.8204C37.4489 21.8084 37.4072 21.7969 37.3682 21.7816C37.3115 21.7598 37.2574 21.7347 37.2071 21.7057L33.4197 19.5196C33.2077 19.397 33.1005 19.2361 33.1005 19.0752L33.0864 24.0783C33.0852 24.2404 33.1924 24.4026 33.4057 24.5252L37.1931 26.7126C37.2438 26.7418 37.2987 26.7671 37.3559 26.7893C37.3973 26.8052 37.4412 26.8176 37.4852 26.8298C37.5005 26.8342 37.515 26.8397 37.5306 26.8436C37.5896 26.858 37.6502 26.8694 37.7119 26.8775C37.7125 26.8776 37.713 26.8777 37.7137 26.8778C37.777 26.8861 37.8413 26.8911 37.9059 26.893C37.9058 26.893 37.9059 26.893 37.9059 26.893L37.9059 21.8858C37.9059 21.8858 37.9059 21.8858 37.9059 21.8858Z" fill="#B3C9E2"/>
<path d="M41.1632 20.2972C41.1115 20.9848 40.7124 21.1507 40.0612 20.9382L34.7529 17.8544L35.8549 17.2134L41.1632 20.2972Z" fill="#7CA2E5"/>
<path d="M41.2001 25.2736L40.0942 25.9159L40.061 20.9384L41.1631 20.2974L41.2001 25.2736Z" fill="#6A95D3"/>
<path d="M39.5919 25.1135L37.9521 24.8281C37.8736 24.8149 37.7959 24.856 37.7627 24.9284C37.7287 25.0025 37.75 25.0903 37.8142 25.1406L38.3358 25.5494C38.4106 25.6081 38.4464 25.7377 38.3738 25.799C37.8386 26.251 37.1318 26.2609 36.575 26.3556C36.6839 26.5588 37.0341 26.7405 37.2718 26.8882C38.0416 27.3665 39.0332 27.2972 39.7638 26.7611L40.533 26.1966L39.5919 25.1135Z" fill="#F7B2B2"/>
<path d="M44.0222 13.2045C44.2609 13.195 44.4778 13.3421 44.575 13.5603C45.2204 15.0094 47.682 20.7841 46.8483 22.7888C46.0911 24.6097 40.1693 26.4114 40.1693 26.4114C39.5136 26.5057 39.1868 25.0128 39.9033 24.5619L43.6696 21.8528C43.8757 21.7155 43.9746 21.4645 43.9177 21.2235L42.6363 15.798C42.548 15.4244 42.543 15.0349 42.6246 14.6598C42.806 13.8255 43.1883 13.2378 44.0222 13.2045Z" fill="#F95070"/>
<path d="M46.8491 22.7889C46.0905 24.6102 40.1702 26.4106 40.1702 26.4106C39.8395 26.4582 39.5922 26.1007 39.52 25.6768C39.8584 25.3308 40.2386 25.0037 40.7121 24.9448C40.9877 24.9106 41.2881 24.9695 41.5353 24.8402C41.6645 24.7718 41.7653 24.6558 41.8832 24.5665C42.292 24.249 42.8604 24.2623 43.3528 24.0988C43.8756 23.9258 44.3243 23.536 44.5696 23.0417C44.6152 22.9505 44.6551 22.8554 44.7274 22.7832C44.8053 22.709 44.908 22.6729 44.9974 22.6121C45.2084 22.4733 45.3072 22.2318 45.3433 21.9751C45.368 21.7983 45.4765 21.6501 45.6191 21.5417C45.6856 21.4922 45.7388 21.4238 45.7731 21.3497C45.8453 21.188 45.8453 21.0036 45.8415 20.8268C45.8377 20.5759 45.8339 20.3249 45.8301 20.074C45.8282 19.8781 45.8167 19.6633 45.6817 19.5207C45.6191 19.4542 45.5297 19.4085 45.4879 19.3268C45.4232 19.1975 45.4992 19.0454 45.5411 18.9066C45.6229 18.6386 45.5696 18.3306 45.4004 18.1062C45.2978 17.9674 45.1513 17.8553 45.1037 17.6899C45.0449 17.4959 45.138 17.283 45.0886 17.0872C45.0126 16.7944 44.6475 16.6423 44.5829 16.3457C44.5297 16.1119 44.6875 15.8723 44.6494 15.6347C44.5961 15.3229 44.2179 15.0548 44.349 14.7658C44.3889 14.6784 44.4745 14.608 44.484 14.5111C44.4992 14.359 44.33 14.2658 44.2102 14.1708C43.83 13.8609 43.908 13.4882 44.1589 13.2183C44.3414 13.2563 44.4974 13.3856 44.5753 13.5605C45.2198 15.0092 47.6819 20.785 46.8491 22.7889Z" fill="#EA2856"/>
<path d="M27.5369 14.519C27.5369 14.519 26.7074 15.4026 27.2911 16.4882C27.4465 16.7771 27.6536 16.9983 27.874 17.1674C28.4002 17.5713 29.1586 17.1597 29.1207 16.4975C29.1046 16.2167 28.937 15.9685 28.6854 15.8428C28.1328 15.5666 27.7338 15.0274 27.5369 14.519Z" fill="#F7B2B2"/>
</g>
<defs>
<clipPath id="clip0_137_7362">
<rect width="48" height="48" fill="white"/>
</clipPath>
</defs>
</svg>
