<svg width="48" height="48" viewBox="0 0 48 48" fill="none" xmlns="http://www.w3.org/2000/svg">
<path d="M11.5 7.00002V24C11.4971 24.3078 11.3996 24.6072 11.2207 24.8576C11.0418 25.1081 10.7902 25.2974 10.5 25.4C10.3409 25.4637 10.1714 25.4976 10 25.5H4C3.60379 25.4948 3.22526 25.3351 2.94507 25.055C2.66488 24.7748 2.50518 24.3962 2.5 24V7.00002C2.49836 5.85229 2.93727 4.74769 3.72621 3.9141C4.51514 3.08051 5.59392 2.5815 6.74 2.52002H7C8.19002 2.52001 9.33159 2.99137 10.1749 3.83096C11.0183 4.67055 11.4947 5.81001 11.5 7.00002Z" fill="#145638"/>
<path d="M41.5 14V41.56C41.4998 42.1655 41.3424 42.7607 41.0434 43.2872C40.7444 43.8137 40.3138 44.2537 39.7939 44.564C39.2739 44.8744 38.6823 45.0445 38.077 45.0579C37.4716 45.0712 36.8731 44.9272 36.34 44.64L35.7 44.28C34.9165 43.7135 33.9662 43.425 33 43.46C32.0187 43.4279 31.0547 43.7235 30.26 44.3C28.9892 45.1166 27.5105 45.5508 26 45.5508C24.4895 45.5508 23.0108 45.1166 21.74 44.3C20.9382 43.7399 19.9776 43.4524 19 43.48C18.0284 43.451 17.0737 43.7388 16.28 44.3L15.66 44.66C15.1269 44.9472 14.5284 45.0912 13.923 45.0779C13.3176 45.0645 12.7261 44.8944 12.2061 44.584C11.6862 44.2737 11.2556 43.8337 10.9566 43.3072C10.6575 42.7806 10.5002 42.1855 10.5 41.58V6.5C10.5018 5.47944 10.1135 4.49677 9.41451 3.75315C8.71551 3.00954 7.75872 2.56123 6.73999 2.5H30C33.0484 2.50529 35.9704 3.71859 38.1259 5.87411C40.2814 8.02964 41.4947 10.9516 41.5 14Z" fill="#0DB561"/>
<path d="M33 15.5H19C18.6022 15.5 18.2206 15.342 17.9393 15.0607C17.658 14.7794 17.5 14.3978 17.5 14C17.5 13.6022 17.658 13.2206 17.9393 12.9393C18.2206 12.658 18.6022 12.5 19 12.5H33C33.3978 12.5 33.7794 12.658 34.0607 12.9393C34.342 13.2206 34.5 13.6022 34.5 14C34.5 14.3978 34.342 14.7794 34.0607 15.0607C33.7794 15.342 33.3978 15.5 33 15.5Z" fill="white"/>
<path d="M27 31.5H19C18.6022 31.5 18.2206 31.342 17.9393 31.0607C17.658 30.7794 17.5 30.3978 17.5 30C17.5 29.6022 17.658 29.2206 17.9393 28.9393C18.2206 28.658 18.6022 28.5 19 28.5H27C27.3978 28.5 27.7794 28.658 28.0607 28.9393C28.342 29.2206 28.5 29.6022 28.5 30C28.5 30.3978 28.342 30.7794 28.0607 31.0607C27.7794 31.342 27.3978 31.5 27 31.5Z" fill="white"/>
<path d="M33 23.5H19C18.6022 23.5 18.2206 23.342 17.9393 23.0607C17.658 22.7794 17.5 22.3978 17.5 22C17.5 21.6022 17.658 21.2206 17.9393 20.9393C18.2206 20.658 18.6022 20.5 19 20.5H33C33.3978 20.5 33.7794 20.658 34.0607 20.9393C34.342 21.2206 34.5 21.6022 34.5 22C34.5 22.3978 34.342 22.7794 34.0607 23.0607C33.7794 23.342 33.3978 23.5 33 23.5Z" fill="white"/>
</svg>
