<svg width="18" height="18" viewBox="0 0 18 18" fill="none" xmlns="http://www.w3.org/2000/svg">
<path d="M15.438 1.95383L13.5 1.95383L13.5 0.545825C13.5 0.283825 13.27 0.0338253 13 0.0458253C12.8682 0.0483854 12.7425 0.101886 12.6493 0.195105C12.5561 0.288324 12.5026 0.414019 12.5 0.545825L12.5 1.95383L5.50001 1.95383L5.50001 0.545825C5.50001 0.283825 5.27001 0.0338254 5.00001 0.0458254C4.8682 0.0483855 4.74251 0.101886 4.64929 0.195105C4.55607 0.288324 4.50257 0.414019 4.50001 0.545825L4.50001 1.95383L2.56201 1.95383C1.89921 1.95462 1.26379 2.21827 0.795122 2.68694C0.326453 3.1556 0.0628057 3.79103 0.0620117 4.45383L0.0620118 15.4538C0.0620118 16.8328 1.18401 17.9538 2.56201 17.9538L15.437 17.9538C16.816 17.9538 17.937 16.8328 17.937 15.4538L17.937 4.45383C17.937 3.79096 17.6738 3.15522 17.2051 2.68641C16.7365 2.2176 16.1009 1.95409 15.438 1.95383ZM2.56201 2.95383L4.50001 2.95383L4.50001 3.54583C4.50001 3.80783 4.73001 4.05783 5.00001 4.04583C5.27101 4.03383 5.50001 3.82583 5.50001 3.54583L5.50001 2.95383L12.5 2.95383L12.5 3.54583C12.5 3.80783 12.73 4.05783 13 4.04583C13.271 4.03383 13.5 3.82583 13.5 3.54583L13.5 2.95383L15.437 2.95383C16.264 2.95383 16.937 3.62683 16.937 4.45383L16.937 6.03783L1.06201 6.03783L1.06201 4.45383C1.06201 3.62683 1.73501 2.95383 2.56201 2.95383ZM15.438 16.9538L2.56201 16.9538C1.73501 16.9538 1.06201 16.2808 1.06201 15.4538L1.06201 7.03783L16.937 7.03783L16.937 15.4538C16.937 15.8515 16.7791 16.2329 16.498 16.5141C16.2169 16.7954 15.8357 16.9536 15.438 16.9538Z" fill="#B1B1B1"/>
</svg>
