<svg width="16" height="14" viewBox="0 0 16 14" fill="none" xmlns="http://www.w3.org/2000/svg">
<path d="M9.20537e-08 13.77L8.52551e-08 12.77L16 12.77L16 13.77L9.20537e-08 13.77ZM6.79865e-09 1.22998L0 0.22998L16 0.22998L16 1.22998L6.79865e-09 1.22998ZM1.616 9.99998C1.15533 9.99998 0.771 9.84598 0.463 9.53798C0.155 9.22998 0.000666725 8.84565 5.5443e-08 8.38498L3.66107e-08 5.61498C3.34834e-08 5.15498 0.154333 4.77098 0.463 4.46298C0.771667 4.15498 1.156 4.00065 1.616 3.99998L14.385 3.99998C14.845 3.99998 15.2293 4.15431 15.538 4.46298C15.8467 4.77165 16.0007 5.15598 16 5.61598L16 8.38498C16 8.84498 15.846 9.22931 15.538 9.53798C15.23 9.84665 14.8453 10.0006 14.384 9.99998L1.616 9.99998ZM1.616 8.99998L14.385 8.99998C14.5383 8.99998 14.6793 8.93598 14.808 8.80798C14.9367 8.67998 15.0007 8.53898 15 8.38498L15 5.61498C15 5.46165 14.936 5.32065 14.808 5.19198C14.68 5.06331 14.5387 4.99931 14.384 4.99998L1.616 4.99998C1.462 4.99998 1.32067 5.06398 1.192 5.19198C1.06333 5.31998 0.999333 5.46131 1 5.61598L1 8.38498C1 8.53831 1.064 8.67931 1.192 8.80798C1.32 8.93665 1.461 9.00065 1.615 8.99998" fill="white"/>
</svg>
