<svg width="100" height="81" viewBox="0 0 100 81" fill="none" xmlns="http://www.w3.org/2000/svg">
<path d="M25.8238 0.103722C27.6373 0.0127041 29.7116 0.0245862 31.5459 -1.84315e-09C39.7844 9.04072 47.7277 18.8954 55.946 28.0592C66.9201 27.5738 76.9827 33.7349 80.3101 44.3589C84.3256 57.1766 77.0648 71.0641 63.9622 74.836C57.7082 76.6546 50.9812 75.9282 45.2695 72.8175C39.3615 69.6101 35.0078 64.176 33.1935 57.7447C31.3827 51.6296 32.1138 45.0504 35.2241 39.4728L45.7185 51.5382C46.0005 53.8358 46.3527 55.3932 47.6127 57.3857C50.9861 62.7189 58.0564 64.1617 63.3414 60.6454C65.9133 58.9421 67.6936 56.2938 68.2898 53.2861C68.9008 50.0863 67.9252 47.4268 66.1285 44.8361C65.3106 43.8126 64.542 43.035 63.458 42.293C61.006 40.6169 57.9759 39.9917 55.0509 40.5583C51.4394 41.2373 49.1007 43.2299 47.0773 46.1343C43.254 41.7231 39.3935 37.344 35.4959 32.9976C32.7356 29.8721 29.9734 26.6101 27.1653 23.5476C27.1101 25.754 27.2376 28.1423 27.2571 30.3804L27.2655 43.5238L27.2566 58.1311C27.2522 68.3941 25.9012 75.071 35.8992 80.8948C24.3474 80.605 12.234 81.0756 0.568253 80.9893C10.0738 75.0838 8.93318 71.6089 8.92809 61.3542L8.9294 45.1554L8.93498 24.1676C8.93498 20.4539 8.98787 16.7334 8.88933 13.0216C8.71672 6.51697 5.83162 2.74031 0 0.148174L25.8238 0.103722Z" fill="#FEFEFE"/>
<path d="M61.9569 0.0887451L100 0.0921638C89.7781 4.74303 90.8785 11.5799 90.8851 21.2493L90.8834 36.0517L90.8801 58.0707C90.8801 61.9439 90.8621 65.8368 90.9031 69.7076C90.9113 70.4296 91.092 72.2677 91.3384 72.9211C92.8904 77.0449 95.817 79.0624 99.509 80.9518L95.6265 80.8297C90.6387 80.8232 85.4703 80.7548 80.5006 80.9176L75.1383 74.8839C79.3033 71.4859 82.0657 68.4874 84.1252 63.4728C90.2938 48.4549 84.3469 31.6086 69.1323 25.2311C69.1619 15.7874 71.1228 4.02937 59.812 0.206301C60.4706 0.133682 61.2835 0.11903 61.9569 0.0887451Z" fill="#FEFEFE"/>
</svg>
