<svg width="20" height="22" viewBox="0 0 20 22" fill="none" xmlns="http://www.w3.org/2000/svg">
<path d="M13.5 17C13.5 17.4596 13.4094 17.9148 13.2335 18.3394C13.0577 18.764 12.7998 19.1499 12.4748 19.4749C12.1498 19.7999 11.764 20.0577 11.3394 20.2336C10.9147 20.4095 10.4596 20.5 9.99997 20.5C9.54034 20.5 9.08521 20.4095 8.66057 20.2336C8.23594 20.0577 7.8501 19.7999 7.52509 19.4749C7.20009 19.1499 6.94228 18.764 6.76639 18.3394C6.5905 17.9148 6.49997 17.4596 6.49997 17M17.231 17L2.76997 17C2.42014 16.9999 2.07821 16.896 1.7874 16.7015C1.4966 16.5071 1.26998 16.2308 1.13619 15.9075C1.0024 15.5843 0.967453 15.2287 1.03576 14.8856C1.10407 14.5425 1.27258 14.2273 1.51997 13.98L2.12197 13.377C2.68425 12.8144 3.00006 12.0514 2.99997 11.256L2.99997 8.5C2.99997 6.64348 3.73746 4.86301 5.05022 3.55025C6.36297 2.2375 8.14345 1.5 9.99997 1.5C11.8565 1.5 13.637 2.2375 14.9497 3.55025C16.2625 4.86301 17 6.64348 17 8.5L17 11.256C17.0001 12.0516 17.3163 12.8145 17.879 13.377L18.482 13.98C18.7289 14.2275 18.8969 14.5426 18.965 14.8856C19.033 15.2285 18.998 15.5839 18.8643 15.9069C18.7305 16.23 18.5042 16.5062 18.2137 16.7007C17.9232 16.8952 17.5806 16.9994 17.231 17Z" stroke="#B1B1B1" stroke-width="1.5" stroke-linecap="round" stroke-linejoin="round"/>
</svg>
