<svg width="80" height="82" viewBox="0 0 80 82" fill="none" xmlns="http://www.w3.org/2000/svg">
<path fill-rule="evenodd" clip-rule="evenodd" d="M33.2672 38.8349C33.2318 38.7519 33.3114 38.7095 33.3556 38.6731C33.3202 38.5927 33.4174 38.4717 33.338 38.3983C36.9166 34.9885 42.0236 45.6879 37.3584 46.4681C37.323 46.4381 37.3054 46.4089 37.217 46.3825C37.164 46.3533 37.217 46.3207 37.1198 46.2915C37.058 46.2685 37.0402 46.2455 37.0402 46.2225C37.049 46.1475 36.8988 46.0687 36.8282 45.9937C36.8282 45.7437 36.7486 45.4839 36.6956 45.2497C36.5984 45.1941 36.6868 45.1455 36.6072 45.0863C36.616 45.0245 36.563 44.9669 36.5012 44.9033C36.325 42.7233 35.794 39.9595 33.6206 39.1751C33.5324 38.9559 33.3734 39.2501 33.2672 38.8349ZM68.9288 20.8097C73.5412 26.8305 76.1036 34.1811 76.8722 41.6695C79.797 2.71105 27.1352 -11.6357 7.85516 21.3689C14.058 26.1729 20.2166 30.8913 26.172 35.9507C27.0114 37.5119 27.8066 39.0441 28.5842 40.5859C27.6652 46.2825 34.0624 46.7817 38.3126 46.4839C33.7268 47.8083 26.5962 47.4469 27.0734 41.0843C25.0942 37.1575 24.5552 36.6505 20.9412 34.1791C20.3758 34.5793 20.1548 35.3021 20.1548 35.9507C20.1636 35.8403 20.2608 35.2367 20.2962 35.3755C20.2696 35.5477 20.2786 35.8845 20.3404 36.0851C20.531 34.8115 20.9216 34.5709 20.7646 34.8807C19.722 37.2391 23.4684 43.8633 24.7054 46.2605C27.206 49.8319 31.5708 51.4313 35.5736 52.7433C39.9562 54.0873 44.4448 55.0229 48.9334 56.0249C50.3118 56.2369 50.6298 56.4525 51.5664 57.4847C53.8284 59.7405 56.2494 61.9751 58.5026 64.2557C60.2874 65.8975 59.015 66.6803 57.5484 67.7397C35.0874 83.7363 5.87596 65.6359 3.33116 39.8289C0.335955 76.1983 53.4484 94.0273 71.2616 61.2577C64.92 57.1067 59.5498 54.2373 57.001 46.6047C56.8238 45.1685 57.3628 43.7265 57.0976 42.2649C56.8944 40.1637 55.6662 35.9367 53.0772 36.1425C51.7694 36.9713 52.1406 38.8939 51.955 40.2309C51.6988 42.1845 51.257 44.0011 51.098 45.9239C50.621 47.4763 45.0808 44.8707 44.1794 44.1991C42.4034 45.4759 40.4506 46.2261 38.3742 46.7279C39.2932 46.3153 40.2474 45.9689 41.1486 45.4979C41.0514 45.5199 40.5742 45.7471 40.6538 45.6489C40.7864 45.5703 41.0426 45.4051 41.184 45.2743C40.857 45.3511 40.3004 45.6357 39.9558 45.7187C40.7952 45.1859 42.0676 44.6477 42.9776 43.9797C42.9068 43.9011 42.739 43.8419 42.792 43.6917C42.7832 43.5459 42.6506 43.4169 42.6772 43.2631C42.5888 43.2127 42.4916 43.1571 42.3768 43.0917C42.474 43.1341 42.5712 43.1747 42.6684 43.2145C42.686 43.1279 42.58 43.0803 42.5712 43.0165C42.58 42.9855 42.5624 42.9477 42.527 42.9229C42.5534 42.8627 42.474 42.8053 42.421 42.7497C42.041 41.0109 42.2884 38.5323 40.7246 37.3669C40.698 37.3783 40.6804 37.3713 40.6892 37.2865C40.6892 37.2265 40.6362 37.2485 40.6096 37.1999C40.4418 37.1787 40.318 36.9075 40.1414 37.0577C40.1236 37.0629 40.1148 37.0595 40.106 37.0037C40.0884 36.9285 40.0354 36.9427 39.9912 36.9285C39.8322 37.0327 39.6112 36.6573 39.7792 36.5619C39.735 36.5169 39.7616 36.4347 39.7528 36.3729C39.7264 36.3057 39.6732 36.2925 39.7086 36.2307C42.7216 33.2141 45.496 39.6943 45.0454 42.2187C47.7934 39.4655 47.2808 34.6525 44.533 32.1123C36.837 27.7721 37.0932 35.9507 23.7686 22.9151C22.2754 21.4687 20.8262 19.9763 19.4036 18.4653C19.059 18.1101 19.059 17.5403 19.4036 17.1885C33.223 1.92825 56.9916 4.74946 68.9288 20.8097ZM79.258 32.6603C75.1582 -4.39575 16.806 -12.0741 5.49596 22.7421C10.6032 26.4399 15.7456 30.2473 20.782 34.0645C18.5288 36.1737 20.6936 39.5711 21.533 41.8975C24.6962 54.0875 39.1872 55.2043 49.4014 58.2385C51.7252 60.5651 54.5262 63.2573 56.85 65.5899C29.876 83.5643 4.33056 58.1693 4.61396 29.9003C4.50616 28.3087 1.98796 28.1453 1.73176 29.7703C-9.56924 74.8527 50.6386 102.829 74.2479 61.4265C75.5397 58.5225 62.091 54.4721 61.1362 49.4509C60.7202 48.4299 59.0592 46.5885 59.1916 45.6537C59.5626 43.2441 59.2358 40.7383 58.2904 38.4851C57.3184 35.6929 53.086 32.1683 51.0096 35.8909C50.4088 37.0271 50.3646 38.1617 50.4176 39.3615C50.3558 41.3053 49.8964 43.2537 49.9316 45.2223C48.076 45.1111 46.247 44.5799 44.5594 43.9155C51.7606 38.6943 46.7418 27.3163 37.9854 29.2647C31.606 29.3663 26.0216 21.9653 21.7008 17.8425C47.5458 -6.24954 81.0338 24.4403 73.8414 54.6449C73.5674 56.3175 76.174 56.9519 76.669 55.2891C79.1874 48.0649 80.3448 40.2787 79.258 32.6603Z" fill="white"/>
</svg>
