<svg width="84" height="78" viewBox="0 0 84 78" fill="none" xmlns="http://www.w3.org/2000/svg">
<path d="M18.0449 38.7151C17.9265 36.5069 19.0131 34.2853 20.9195 33.1709C21.3551 32.8669 21.8739 32.7475 22.3459 32.5279C22.5443 32.4755 22.7489 32.2403 22.9583 32.3339C23.5105 32.3801 24.1433 32.0011 24.6367 32.4505C24.5317 32.5515 24.4053 32.5407 24.2821 32.5923C24.4095 32.6283 24.2969 32.7007 24.2799 32.7839C24.3185 32.8507 24.3877 32.8143 24.4329 32.8609C22.2123 33.7847 20.0631 36.0507 20.3505 38.6497C20.5893 41.0283 22.9265 42.9049 25.2959 42.3309C27.4961 41.9595 28.9259 39.4883 28.4599 37.3659C28.1621 35.9495 27.0847 34.8091 26.0009 33.9117C25.6999 33.6643 25.3247 33.4997 25.0549 33.2151C24.9583 33.0131 24.7983 32.8243 24.6369 32.7057C24.7237 32.6697 24.8097 32.6547 24.8699 32.5653C24.9539 32.5183 25.0713 32.5717 25.1513 32.4749C25.4569 32.3591 25.8403 32.3983 26.1699 32.3233C26.9735 32.5309 27.7989 32.7479 28.4745 33.2587C32.3293 35.2703 32.1299 40.9935 28.9523 43.5751C24.5913 47.0933 18.3077 44.3415 18.0449 38.7151ZM55.7021 37.7115C55.9145 36.6101 56.3475 35.4637 57.1809 34.7101C57.6251 34.3641 58.1003 34.0945 58.6099 33.8897C58.7423 33.6579 59.0397 33.6911 59.2063 33.5155C59.2573 33.4099 59.3655 33.4557 59.4307 33.3995C59.4757 33.3047 59.5521 33.2815 59.6303 33.2373C58.7321 32.0693 56.9659 32.5015 55.7849 33.0389C54.3181 33.8467 53.3607 35.3911 52.9857 36.9929C51.3483 45.4817 63.6001 48.2015 65.8797 39.9471C66.4081 37.6701 65.6115 34.9597 63.6187 33.6283C62.6725 33.0427 61.5323 32.8227 60.4353 32.9227C60.2621 32.9361 59.5779 32.9865 59.9611 33.1937C59.9389 33.2705 59.8281 33.3341 59.9367 33.3839C59.8297 33.4233 59.7181 33.4009 59.6305 33.4923C59.9143 33.8603 60.3839 33.7781 60.7633 33.9385C60.7959 33.9511 60.8277 33.9629 60.8399 34.0133C60.9175 34.1625 61.1339 34.1033 61.2731 34.1695C61.6263 34.2705 61.8889 34.5777 62.1727 34.8003C63.9933 36.4457 64.4117 39.3955 62.4445 41.1533C59.5809 43.6289 55.1769 41.5627 55.7021 37.7115ZM82.9775 44.2353C82.3027 40.5343 78.5313 40.0711 75.7845 41.9015C72.0811 43.5135 66.8433 47.6997 62.9983 47.6425C59.0135 46.8145 55.1829 45.1557 51.1977 44.2451C50.4187 44.0725 49.6823 43.7009 49.1165 43.1343C48.0331 42.1235 47.5627 40.4841 47.3753 39.0049C47.0657 37.1985 46.7479 35.2845 46.4259 33.4939C46.0641 31.5449 45.9767 28.2229 43.4013 28.1849C43.5811 28.2679 43.8925 28.3429 43.9979 28.4757C43.7677 28.5119 43.4417 28.3865 43.8651 28.6253C43.4553 28.4749 42.9377 28.3909 42.5293 28.5395C44.8765 28.8633 45.0651 30.5963 45.1811 32.5695C45.2083 34.7155 45.7403 36.8523 45.8317 39.0063C45.9011 41.6175 46.9837 44.4609 49.4849 45.6905C52.4461 46.8685 55.5893 47.5937 58.6029 48.6897C60.6337 49.3643 62.8723 50.2291 65.0569 49.7143C68.8897 48.6317 72.1589 46.3287 75.7097 44.6137C76.6761 44.1503 77.7005 43.4443 78.7465 43.2779C80.0517 42.9535 80.9245 44.4853 80.4175 45.5613C80.3159 45.7667 80.1527 45.8829 79.9675 45.9883C77.5347 47.4781 75.0271 48.7663 72.4195 49.9497C69.0423 51.4331 65.0641 53.1447 63.9783 57.0653C62.4573 62.7457 63.0019 68.7397 62.9303 74.5593C58.8585 74.5635 54.6243 74.6105 50.5645 74.5993C50.5413 70.8703 50.5637 64.6859 50.5573 61.0503C50.6793 58.1523 50.2755 55.0647 48.4917 52.6875C46.6529 49.9175 44.1131 47.5871 42.7213 44.5483C42.1933 43.2929 42.1539 41.8539 41.9563 40.5175C41.6225 38.0053 41.1997 35.5329 40.9243 33.0191C40.3705 31.1193 40.1579 28.9837 42.4989 28.2865C38.6475 28.2989 39.3799 31.7711 39.5059 34.4761C39.6083 36.7409 39.8503 39.0661 39.9327 41.3275C40.0401 43.3223 40.3273 45.3699 41.3391 47.1347C38.5803 49.8271 35.5871 52.8171 34.2887 56.5413C33.9959 57.5755 33.8703 58.6561 33.8517 59.7283C33.7237 64.6657 33.7229 69.6095 33.6747 74.5495C29.8071 74.5161 25.2005 74.5019 21.3563 74.5287C21.1509 68.7859 22.3011 58.3335 18.2837 53.9539C15.4023 51.2107 11.3931 50.1905 7.98329 48.2955C7.40909 47.9987 6.62009 47.5701 6.06069 47.2441C5.03589 46.5331 3.18289 46.1811 3.55029 44.5589C4.13629 41.8925 6.96249 43.5893 8.47009 44.4217C11.3481 45.8781 14.5801 47.7643 17.5551 49.0151C20.1845 50.2951 23.1883 49.4721 25.7199 48.4661C27.9145 47.7525 30.0947 46.9941 32.3149 46.3549C35.0541 45.8033 37.1531 44.3503 37.8537 41.5709C38.4423 38.4549 38.3641 35.2207 38.6321 32.0675C38.5413 29.8587 39.2637 28.2347 41.5855 27.8869C41.4109 27.8221 41.1027 27.8837 40.9313 27.8409C41.1167 27.6807 41.5133 27.6393 40.9639 27.6435C41.1731 27.5995 41.4053 27.5741 41.6185 27.5763C41.8181 27.6883 41.7335 27.8403 41.8927 27.9347C41.9947 27.9657 41.9441 28.0179 41.9975 28.0581C42.0899 28.0839 42.1091 28.1235 42.1491 28.1637C44.6285 27.2129 43.7493 22.5349 43.7197 20.3779C43.5431 18.6515 43.5951 16.8909 43.4019 15.1593C49.9859 15.2649 56.8869 15.3177 63.4841 15.1951C64.8149 15.1639 66.1597 15.1229 67.4921 15.1121C68.6855 15.1363 69.2603 13.4515 68.2539 12.7555C66.0037 11.0973 63.6377 9.32006 61.3701 7.69906C63.2479 6.25866 66.3173 3.97566 68.1699 2.53826C68.9943 1.93826 68.5113 0.497057 67.4661 0.552457C66.4301 0.571257 64.9153 0.583256 63.8731 0.617056C57.9673 0.712856 51.9421 0.743856 46.0705 1.42926C45.6339 1.52606 41.9789 1.64666 43.3991 1.81866C43.3885 1.83986 43.3785 1.86026 43.3683 1.88066C43.2145 1.92546 43.4337 1.94366 43.4985 1.95686C43.2767 1.98686 42.9745 1.96746 42.7835 2.03846C49.4485 2.65686 56.8381 2.76986 63.5751 2.90686C56.6583 8.16526 55.5225 6.84446 63.1789 12.3747C56.7885 12.4935 49.9389 12.2947 43.5599 12.5307C43.2679 8.97766 43.2547 5.36846 42.6033 1.85806C42.5641 2.09386 42.5327 2.10626 42.4293 2.26726C42.3825 2.41286 42.3363 2.56466 42.2483 2.59126C42.1673 2.80126 42.1297 3.02586 42.0763 3.26966C41.6283 6.28166 41.1879 9.27506 41.1243 12.3447C41.1167 12.5417 41.0889 13.5865 41.0813 13.8093C41.3117 14.6951 41.1667 15.5661 41.1507 16.4779C40.8233 19.1395 41.0489 21.7963 41.0365 24.4669C41.0233 25.1035 41.1399 25.7487 41.3661 26.3099C41.4203 26.5867 41.5293 27.1067 41.5553 27.3423C39.8783 27.0633 38.2359 28.3583 37.8183 29.9691C37.6593 30.4251 37.6809 31.0217 37.5165 31.4619C36.8491 34.3469 37.0527 41.1163 34.8983 42.9899C34.3655 43.3321 33.8555 43.7843 33.2125 43.9237C30.3787 44.6587 27.5541 45.5627 24.7781 46.4633C19.6987 48.8275 16.5659 45.8815 12.1667 43.6323C9.01809 41.9563 4.12889 38.3251 1.55189 42.7185C-0.758109 47.2521 3.75869 48.9865 6.99929 50.8025C9.97089 52.5359 13.5329 53.4523 16.1601 55.6643C17.2699 56.6795 17.6517 58.1867 17.9531 59.6099C18.6007 63.4591 18.4825 67.5203 18.5469 71.4445C18.5405 72.9581 18.5197 74.4735 18.4975 75.9901C18.4841 77.1813 19.7289 77.5127 20.7105 77.3765C24.1561 77.2775 31.4657 77.4281 34.8163 77.3669C35.6615 77.4611 36.4815 76.8825 36.4649 75.9883C36.4907 72.3445 36.3945 68.6995 36.3461 65.0577C36.3077 62.2763 35.7635 59.3349 36.4533 56.5965C37.4339 53.2389 40.1655 50.7959 41.6453 47.6649C48.9575 57.8987 47.7181 55.2849 47.7123 67.7629C47.6859 69.7593 47.7135 73.9706 47.7175 75.9885C47.7143 76.7961 48.3707 77.4533 49.1787 77.4495C53.7289 77.4307 58.6371 77.4207 63.1727 77.3813C64.2663 77.4177 65.7607 77.4497 65.7587 75.9665C65.7105 74.1849 65.6603 72.4037 65.6421 70.6255C65.6289 67.6355 65.6129 64.6449 65.8705 61.6707C66.3385 55.7785 68.1925 54.7727 73.2449 52.4295C75.5603 51.3423 77.8547 50.1677 80.0587 48.8597C81.9701 47.8915 83.3943 46.5547 82.9775 44.2353Z" fill="white"/>
</svg>
