<svg width="44" height="48" viewBox="0 0 44 48" fill="none" xmlns="http://www.w3.org/2000/svg">
<path fill-rule="evenodd" clip-rule="evenodd" d="M27.7224 38.0175L34.9983 34.0575C36.2602 33.3694 36.7337 31.7691 36.0455 30.5072C35.3574 29.2425 33.7599 28.7691 32.4952 29.4572L24.6108 33.7491L27.7224 38.0175Z" fill="#FBC894"/>
<path fill-rule="evenodd" clip-rule="evenodd" d="M26.5347 42.7285L41.7625 34.4428C43.0272 33.7547 43.4978 32.1572 42.8097 30.8925C42.1244 29.6278 40.5241 29.1572 39.2622 29.8453L31.3956 34.1241C31.271 33.1491 30.5988 32.2772 29.6041 31.9585C26.6013 30.991 23.6013 30.0235 20.5975 29.0569C18.1947 28.2835 15.8406 28.5038 13.6244 29.7103L4.38721 34.7381L9.69908 44.491L13.1435 42.6178C14.7485 41.7431 16.4547 41.5838 18.1956 42.1444L21.4853 43.2019C23.2263 43.7625 24.9297 43.6031 26.5347 42.7285Z" fill="#FBBD80"/>
<path fill-rule="evenodd" clip-rule="evenodd" d="M7.92158 32.8135L4.38721 34.7372L9.69908 44.49L13.1435 42.6169C13.2522 42.556 13.361 42.4997 13.4706 42.4491L7.92158 32.8135Z" fill="#E2AA73"/>
<path fill-rule="evenodd" clip-rule="evenodd" d="M0.964292 34.337L8.6096 47.611C8.79804 47.9382 9.21804 48.0498 9.54242 47.8632L12.9418 45.9048C13.269 45.7164 13.3805 45.2964 13.194 44.972L5.54867 31.6979C5.36023 31.3735 4.94023 31.2592 4.61585 31.4486L1.21648 33.4042C0.889292 33.5926 0.777729 34.0126 0.964292 34.337Z" fill="#0593FC"/>
<path fill-rule="evenodd" clip-rule="evenodd" d="M32.814 33.3535C33.0212 34.1082 33.0184 34.9295 32.7634 35.7263C32.0593 37.9079 29.7071 39.1145 27.5255 38.4104C25.1546 37.6473 22.7846 36.8851 20.4137 36.1201C20.0574 36.0057 19.8605 35.626 19.9749 35.2698L20.0359 35.086C20.1502 34.7326 20.5327 34.5357 20.8862 34.6501C23.2571 35.4132 25.6271 36.1782 27.998 36.9404C29.3668 37.382 30.8499 36.6216 31.2905 35.2501C31.4124 34.8751 31.4424 34.4926 31.3946 34.1232L32.814 33.3535Z" fill="#E2AA73"/>
<path d="M25.6365 8.59875V2.82656C25.6365 2.70937 25.6843 2.60625 25.7611 2.52938C25.8408 2.44969 25.9449 2.40188 26.0611 2.40188H32.6649C32.7793 2.40188 32.8852 2.44969 32.9621 2.52938C33.0418 2.60625 33.0896 2.71031 33.0896 2.82656V8.59875H35.4436V2.82656C35.4436 2.06156 35.1324 1.365 34.628 0.8625C34.1255 0.357188 33.4299 0.046875 32.664 0.046875H26.0602C25.2952 0.046875 24.5986 0.358125 24.0961 0.8625C23.5908 1.365 23.2805 2.06063 23.2805 2.82656V8.59875H25.6365Z" fill="#223C55"/>
<path fill-rule="evenodd" clip-rule="evenodd" d="M40.0873 10.9717H18.6392V21.2804C18.6392 21.9957 19.242 22.577 19.9863 22.577H38.7401C39.4817 22.577 40.0873 21.9948 40.0873 21.2804V10.9717Z" fill="#223C55"/>
<path fill-rule="evenodd" clip-rule="evenodd" d="M39.7019 12.3563L29.5206 13.6181C29.4119 13.6312 29.3135 13.6312 29.2019 13.6181L19.0244 12.3563C18.371 12.2738 17.8872 11.7291 17.8872 11.07V6.35625C17.8872 5.64375 18.4694 5.0625 19.181 5.0625H39.5425C40.2578 5.0625 40.8363 5.64469 40.8363 6.35625V11.0709C40.8372 11.7291 40.3563 12.2738 39.7019 12.3563Z" fill="#2F5274"/>
<path fill-rule="evenodd" clip-rule="evenodd" d="M30.0663 11.4526H28.6601C28.3226 11.4526 28.0432 11.7292 28.0432 12.0695V15.6733C28.0432 16.0108 28.3226 16.2873 28.6601 16.2873H30.0663C30.4038 16.2873 30.6832 16.0108 30.6832 15.6733V12.0695C30.6832 11.7292 30.4038 11.4526 30.0663 11.4526Z" fill="#FFD400"/>
<path fill-rule="evenodd" clip-rule="evenodd" d="M29.3621 28.1024C32.9471 28.1024 35.8674 25.1793 35.8674 21.5971C35.8674 18.0121 32.9471 15.0918 29.3621 15.0918C25.7799 15.0918 22.8596 18.0121 22.8596 21.5971C22.8587 25.1784 25.7799 28.1024 29.3621 28.1024Z" fill="#DAEAFA"/>
<path fill-rule="evenodd" clip-rule="evenodd" d="M32.2693 18.6892C32.9949 20.5285 32.7718 22.4898 31.5146 23.746C30.2574 25.0032 28.2933 25.2263 26.4577 24.5007C25.7321 22.6642 25.9552 20.7001 27.2124 19.4438C28.4687 18.1867 30.4327 17.9663 32.2693 18.6892Z" fill="#70DA40"/>
<path fill-rule="evenodd" clip-rule="evenodd" d="M27.2895 24.764C27.0101 24.6975 26.7316 24.6103 26.4579 24.5006C26.3491 24.2269 26.261 23.9475 26.1973 23.669L28.8176 21.0487C29.1176 20.7487 29.607 20.7487 29.9098 21.0487C30.2126 21.3515 30.2126 21.8409 29.9098 22.1409L27.2895 24.764Z" fill="#65C43A"/>
<path fill-rule="evenodd" clip-rule="evenodd" d="M24.6157 21.5961C24.6157 19.1033 26.0135 16.9405 28.0704 15.8483C28.7351 15.4949 29.4654 15.253 30.2416 15.1489C29.9547 15.1086 29.6622 15.0908 29.3622 15.0908C28.9104 15.0908 28.4716 15.1358 28.0441 15.2239C25.0835 15.8324 22.8569 18.4555 22.8569 21.5961C22.8569 21.928 22.8832 22.2552 22.931 22.5768C23.4044 25.7043 26.1044 28.1014 29.3622 28.1014C29.6622 28.1014 29.9547 28.0799 30.2416 28.0433C27.3851 27.6552 25.1182 25.4174 24.6879 22.5768C24.6401 22.2552 24.6157 21.9289 24.6157 21.5961Z" fill="#C4D3E1"/>
<path fill-rule="evenodd" clip-rule="evenodd" d="M28.9873 13.592V12.0695C28.9873 11.7292 29.2639 11.4526 29.6014 11.4526H28.6611C28.3236 11.4526 28.0442 11.7292 28.0442 12.0695V13.4758V15.2242C28.3526 15.1604 28.6658 15.1201 28.9873 15.1023V13.592Z" fill="#E6BF00"/>
<path fill-rule="evenodd" clip-rule="evenodd" d="M20.4063 21.2804V12.527L19.0245 12.3573C18.8867 12.3385 18.7592 12.301 18.6392 12.2485V21.2813C18.6392 21.9967 19.242 22.5779 19.9863 22.5779H21.7507C21.0092 22.577 20.4063 21.9957 20.4063 21.2804Z" fill="#1F364D"/>
<path fill-rule="evenodd" clip-rule="evenodd" d="M19.0244 12.3563L19.8935 12.4622C19.7416 12.2466 19.6544 11.9784 19.6544 11.6991V10.9706V6.35625C19.6544 5.64375 20.2366 5.0625 20.9481 5.0625H19.181C18.4685 5.0625 17.8872 5.64469 17.8872 6.35625V11.0709C17.8872 11.5922 18.19 12.0412 18.6391 12.2484C18.7591 12.3009 18.8866 12.3375 19.0244 12.3563Z" fill="#2A4A68"/>
</svg>
