<svg width="230" height="186" viewBox="0 0 230 186" fill="none" xmlns="http://www.w3.org/2000/svg">
<path d="M86.5436 0.125074C88.7216 0.0153193 91.2129 0.0296475 93.416 -1.18859e-09C103.311 10.9018 112.851 22.7852 122.721 33.8355C135.902 33.2502 147.987 40.6795 151.984 53.4906C156.806 68.9469 148.086 85.6933 132.349 90.2417C124.838 92.4346 116.759 91.5588 109.899 87.8077C102.803 83.9399 97.5739 77.3872 95.3948 69.632C93.22 62.258 94.0981 54.3244 97.8337 47.5986L110.438 62.1478C110.776 64.9184 111.2 66.7964 112.713 69.199C116.764 75.6302 125.256 77.37 131.604 73.1298C134.693 71.0759 136.831 67.8824 137.547 64.2556C138.281 60.3971 137.109 57.19 134.951 54.0661C133.969 52.8319 133.046 51.8941 131.744 50.9994C128.799 48.9783 125.159 48.2243 121.646 48.9076C117.309 49.7263 114.5 52.1291 112.07 55.6315C107.478 50.3122 102.841 45.0316 98.1601 39.7905C94.8449 36.0215 91.5273 32.088 88.1547 28.395C88.0885 31.0557 88.2415 33.9356 88.265 36.6345L88.2751 52.4835L88.2644 70.0979C88.2591 82.4737 86.6365 90.525 98.6446 97.5477C84.7703 97.1982 70.2216 97.7657 56.2107 97.6616C67.6272 90.5405 66.2573 86.3502 66.2512 73.9845L66.2527 54.4511L66.2595 29.1427C66.2595 24.6646 66.323 20.1782 66.2046 15.7022C65.9973 7.85855 62.5322 3.30443 55.5282 0.178677L86.5436 0.125074Z" fill="#FEFEFE"/>
<path d="M129.941 0.106934L175.632 0.111056C163.355 5.71934 164.677 13.9637 164.685 25.6236L164.683 43.4732L164.679 70.025C164.679 74.6955 164.657 79.3898 164.706 84.0574C164.716 84.928 164.933 87.1445 165.229 87.9324C167.093 92.9052 170.608 95.338 175.042 97.6164L170.379 97.4691C164.389 97.4613 158.181 97.3788 152.212 97.5751L145.772 90.2993C150.774 86.2019 154.092 82.5861 156.566 76.5392C163.975 58.4296 156.832 38.1154 138.559 30.4251C138.594 19.0373 140.949 4.85878 127.365 0.248689C128.156 0.161121 129.132 0.143453 129.941 0.106934Z" fill="#FEFEFE"/>
<path d="M0 107.875L16.1606 107.901L32.5835 128.259C35.4979 131.884 39.7925 136.965 42.3727 140.711L42.4542 122.059C42.5023 114.953 42.4852 113.125 37.3911 107.985C42.5138 108.05 47.637 108.046 52.7594 107.975C50.9267 109.538 48.2121 112.018 47.7537 114.398C46.7825 119.436 47.1659 125.489 47.1705 130.631L47.1695 155.586L44.6356 155.594L39.3775 155.584L9.65051 119.298C9.84145 126.276 9.70022 133.197 9.76097 140.158C9.82765 147.801 9.12978 150.167 14.5824 155.6C9.92983 155.568 5.27706 155.57 0.624494 155.606C4.35905 152.209 5.04332 149.374 5.19639 144.397C5.30606 136.838 5.35971 129.239 5.27607 121.68C5.20368 115.142 5.41908 112.047 0 107.875Z" fill="#FEFEFE"/>
<path d="M96.4535 107.903C103.262 107.979 110.189 107.913 117.009 107.924C116.331 109.114 116.11 109.483 115.676 110.795C116.968 115.381 120.104 120.043 122.717 124.068C124.585 121.527 128.686 115.134 129.791 112.099C130.288 110.728 129.118 109.15 128.369 108.017C132.251 107.864 136.598 107.958 140.512 107.962C133.403 114.783 130.501 120.049 125.171 128.089C128.195 132.669 131.195 137.268 134.168 141.884C137.945 147.664 139.75 151.078 144.912 155.777L140.559 155.706L124.495 155.649C125.15 154.471 125.319 153.968 125.765 152.708C124.676 149.347 118.857 140.707 116.664 137.328C114.271 140.578 108.338 148.108 107.404 151.948C107.058 153.368 108.295 154.656 109.185 155.653C105.292 155.626 100.915 155.498 97.0594 155.647C103.822 148.867 108.469 140.845 114.068 133.062C109.691 126.506 105.572 119.64 101.17 113.084C100.237 111.692 96.693 108.769 96.4535 107.903Z" fill="#FEFEFE"/>
<path d="M147.474 107.907C152.313 107.699 158.949 107.836 163.846 107.966C160.254 111.203 160.252 115.973 160.282 120.437C160.327 127.152 160.252 133.959 160.351 140.666C160.554 154.685 179.569 155.675 181.658 142.308C182.453 137.219 181.922 131.89 182.057 126.75C181.978 122.719 182.272 118.643 181.822 114.631C181.461 111.423 179.999 109.733 177.532 107.893C181.816 108.023 186.544 107.921 190.913 107.993L191.049 108.032L191.134 108.197C186.759 113.45 187.735 114.747 187.481 121.126C187.171 128.85 188.207 137.931 186.635 145.363C184.877 153.682 174.622 156.874 167.162 156.489C159.276 156.391 150.396 153.976 148.51 145.086C147.743 141.581 147.857 138.088 147.863 134.521L147.893 120.2C147.899 115.36 148.327 111.559 144.847 108.017L147.474 107.907Z" fill="#FEFEFE"/>
<path d="M88.1291 107.917C89.1215 107.868 90.215 107.887 91.2165 107.885C91.3368 111.148 91.4074 114.414 91.4283 117.677C87.9334 114.099 86.9689 112.187 81.1604 112.266C78.7524 112.299 76.0585 112.266 73.622 112.275C73.4639 117.533 73.5936 123.433 73.5919 128.741C76.282 128.768 79.9394 128.97 82.5037 128.301C85.5139 127.515 86.5371 125.42 87.8782 122.964L87.8993 136.912C87.6819 136.694 87.4634 136.478 87.2432 136.264C83.1006 132.239 79.1185 132.976 73.6088 133.056C73.5167 139.101 73.5865 145.329 73.5785 151.388C79.1721 151.422 85.807 152.113 90.4073 148.646C91.6922 147.491 92.9749 145.964 94.1346 144.658C93.7941 148.002 92.9681 152.209 92.3887 155.565L56.8734 155.563C58.1499 154.08 60.0508 151.879 60.4465 149.961C61.5515 144.603 61.0449 137.906 61.1333 132.402C61.2169 127.191 61.1325 122.016 61.0354 116.852C60.9569 112.67 59.8235 110.736 56.8241 108.054C67.1589 107.974 77.8422 108.15 88.1291 107.917Z" fill="#FEFEFE"/>
<path d="M211.55 107.102C217.122 106.263 223.227 107.736 228.263 110.086C228.101 113.663 227.854 117.192 227.72 120.785C225.984 118.533 224.706 116.813 222.675 114.775C219.246 111.331 210.765 109.095 207.18 113.398C206.078 114.726 205.565 116.44 205.758 118.152C206.393 124.028 215.824 126.127 220.576 128.293C222.282 129.066 223.876 130.068 225.31 131.271C228.101 133.635 229.724 136.457 229.961 140.126C230.644 150.691 222.26 156.018 212.644 156.589C206.962 157.232 201.022 155.313 196.154 152.517C196.249 149.215 196.448 145.814 196.602 142.506C200.681 148.102 205.35 152.837 212.861 152.455C217.203 152.233 221.375 149.172 220.503 144.587C219.041 136.889 206.81 136.569 201.644 131.929C198.653 129.241 196.91 127.366 196.424 123.282C195.075 113.34 202.543 108.174 211.55 107.102Z" fill="#FEFEFE"/>
<path d="M87.2105 166.263C92.6402 165.391 97.7544 169.059 98.6438 174.46C99.5334 179.864 95.8629 184.963 90.4377 185.864C84.9924 186.765 79.8453 183.095 78.9526 177.673C78.0596 172.252 81.7604 167.137 87.2105 166.263Z" fill="#FEFEFE"/>
<path d="M87.0002 169.577C90.5638 168.576 94.2656 170.647 95.2591 174.197C96.2527 177.747 94.16 181.427 90.5904 182.404C87.0365 183.376 83.3613 181.305 82.3723 177.771C81.3831 174.237 83.4527 170.573 87.0002 169.577Z" fill="black"/>
<path d="M124.063 166.713L127.325 166.713C127.329 171.712 127.394 179.948 127.26 185.251C127.164 185.349 127.067 185.446 126.972 185.544L124.108 185.54L114.979 171.82L114.954 185.544L111.75 185.53L111.77 166.715L115.261 166.713C118.252 171.022 121.189 175.369 124.073 179.748C123.935 175.695 124.055 170.814 124.063 166.713Z" fill="#FEFEFE"/>
<path d="M141.62 166.709L153.583 166.721L153.589 169.615L144.934 169.619L144.926 174.396L152.698 174.417L152.68 177.441C151.42 177.427 145.719 177.27 144.932 177.561L144.928 182.652L153.583 182.664L153.581 185.544L141.592 185.534L141.62 166.709Z" fill="#FEFEFE"/>
</svg>
